<?xml version="1.0" encoding="UTF-8" standalone="no"?>
<!-- Created with Inkscape (http://www.inkscape.org/) -->

<svg
   xmlns:dc="http://purl.org/dc/elements/1.1/"
   xmlns:cc="http://creativecommons.org/ns#"
   xmlns:rdf="http://www.w3.org/1999/02/22-rdf-syntax-ns#"
   xmlns:svg="http://www.w3.org/2000/svg"
   xmlns="http://www.w3.org/2000/svg"
   xmlns:sodipodi="http://sodipodi.sourceforge.net/DTD/sodipodi-0.dtd"
   xmlns:inkscape="http://www.inkscape.org/namespaces/inkscape"
   id="svg2920"
   version="1.1"
   inkscape:version="0.47 r22583"
   width="114.32242"
   height="116.92646"
   xml:space="preserve"
   sodipodi:docname="yay.svg"><metadata
     id="metadata2926"><rdf:RDF><cc:Work
         rdf:about=""><dc:format>image/svg+xml</dc:format><dc:type
           rdf:resource="http://purl.org/dc/dcmitype/StillImage" /><dc:title></dc:title></cc:Work></rdf:RDF></metadata><defs
     id="defs2924"><inkscape:perspective
       sodipodi:type="inkscape:persp3d"
       inkscape:vp_x="0 : 0.5 : 1"
       inkscape:vp_y="0 : 1000 : 0"
       inkscape:vp_z="1 : 0.5 : 1"
       inkscape:persp3d-origin="0.5 : 0.33333333 : 1"
       id="perspective2928" /></defs><sodipodi:namedview
     pagecolor="#ffffff"
     bordercolor="#666666"
     borderopacity="1"
     objecttolerance="10"
     gridtolerance="10"
     guidetolerance="10"
     inkscape:pageopacity="0"
     inkscape:pageshadow="2"
     inkscape:window-width="1280"
     inkscape:window-height="725"
     id="namedview2922"
     showgrid="false"
     inkscape:zoom="11.817232"
     inkscape:cx="39.390866"
     inkscape:cy="94.304462"
     inkscape:window-x="0"
     inkscape:window-y="24"
     inkscape:window-maximized="1"
     inkscape:current-layer="g2932" /><g
     id="g2930"
     inkscape:groupmode="layer"
     inkscape:label="ink_ext_XXXXXX"
     transform="matrix(1.25,0,0,-1.25,-14.286583,120.19078)"><g
       id="g2932"
       transform="scale(0.1,0.1)"><path
         d="m 1160,0 0,1020 c 0,-340 491.9599,-797.13331 0,-1020 z"
         style="fill:#ffffff;fill-opacity:1;fill-rule:nonzero;stroke:none"
         id="path2934"
         sodipodi:nodetypes="ccc" /><path
         style="fill:#000000;fill-opacity:1;fill-rule:nonzero;stroke:none"
         d="M 57.125 0 C 45.622737 0.24975435 34.127198 3.6647949 24.84375 10.53125 C 17.927077 15.849664 13.450835 23.328684 10.8125 31.28125 C 7.25 32.230875 3.362875 33.71875 1.75 37.34375 C -0.6875 42.71875 -0.7245 49.581625 2.4375 54.65625 C 4.838 58.056125 9.31825 57.737875 12.96875 57.375 C 17.493625 66.737875 27.588 71.21875 37.3125 72.96875 L 33.5 77.78125 C 31.337375 78.230875 28.462375 78.1435 27.5625 80.65625 C 24.725125 84.831 28.387125 90.54975 33 91.125 C 34.762125 90.76275 36.056125 89.34375 37.53125 88.40625 C 37.756375 92.21875 38.75575 95.95025 40.90625 99.125 C 40.78125 100.73788 40.649875 102.32525 40.5 103.9375 C 38.712375 105.77487 36.2685 107.5191 36.15625 110.34375 C 35.743625 113.21875 38.112875 115.71875 40.8125 116.28125 C 46.13775 117.91845 51.75575 116.25585 56.15625 113.09375 C 59.34375 115.34375 63.037625 117.1626 67.0625 116.875 C 70.612875 116.9502 75.605875 115.70605 75.90625 111.40625 C 76.34375 108.21875 73.756375 106.03763 71.84375 103.9375 C 71.556125 101.78763 71.274875 99.668375 71 97.53125 C 71.482733 96.432791 71.964865 93.622802 72.4375 92.40625 C 72.627627 92.322095 73.15625 92.09375 73.15625 92.09375 C 77.517027 92.425799 76.9375 95.57525 81.1875 92.0625 C 85.5255 88.95025 84.03125 81.38075 78.53125 80.71875 C 77.2315 77.806125 75.899875 74.894125 74.5 72.03125 C 84.362875 69.818875 94.475125 65.506375 100.1875 56.71875 C 104.1875 57.09375 109.13138 57.38075 111.71875 53.65625 C 114.96875 48.605875 115.2625 41.42475 112.125 36.25 C 109.73737 32.537625 104.99362 32.662625 101.09375 32.5 C 99.993625 23.675375 97.550375 13.894125 90 8.34375 C 81.800375 2.693875 71.67475 0.631375 61.875 0.09375 C 61.060148 0.050023438 60.254676 0.012080536 59.4375 0 C 58.671397 -0.011325502 57.891818 -0.01665029 57.125 0 z M 57.46875 5.125 C 59.842585 5.0713336 62.216359 5.1812031 64.5625 5.40625 C 72.637125 6.44325 81.162625 8.037625 87.75 13.125 C 94.838 19.48725 95.65625 29.65625 96.53125 38.53125 C 96.756375 40.831 99.300375 39.318875 100.5625 38.90625 C 103.03762 37.806125 107.05038 36.806125 108.375 40.03125 C 109.47512 43.681125 109.72513 48.506375 106.75 51.34375 C 103.8125 52.831 100.63775 50.756375 97.75 50.09375 C 93.95025 59.581 84.09375 64.6505 74.59375 66.625 C 61.59375 69.225125 47.925375 70.34375 34.9375 67.09375 C 29.82525 65.8565 24.75 63.73725 21.0625 59.875 C 18.475125 57.20025 17.38775 53.568875 16 50.21875 C 13.5 51.081625 11.043375 52.456 8.34375 52.46875 C 5.6435 51.96875 5.338 48.668375 5.125 46.46875 C 4.7755 42.806125 5.831 38.03125 9.84375 36.84375 C 12.668375 36.918375 15.13775 38.625 17.8125 39.375 C 17.807496 39.368696 17.817506 39.350053 17.8125 39.34375 C 19 30.668375 21.34375 19.90625 28.46875 14.28125 C 36.857508 8.2787031 47.182131 5.3575543 57.46875 5.125 z M 69.4375 71.46875 C 73.399875 76.043375 73.8125 82.850125 78.75 86.625 C 80.269667 88.275783 79.880302 89.933565 77.03125 89.96875 C 74.493625 87.169 72.44325 87.723957 69.90625 87.03125 C 68.952352 87.139804 68.813322 86.988528 68.125 87.0625 C 68.124047 87.038331 68.125 86.990292 68.125 86.96875 C 59.887125 87.006375 50.412625 87.46875 42.1875 86.65625 C 42.587375 84.431125 42.975125 82.206 43.375 79.96875 C 40.20025 82.043375 37.0625 84.15625 33.9375 86.28125 C 33.287625 86.169 31.9815 85.956 31.34375 85.84375 C 31.3935 85.331 31.480875 84.306125 31.53125 83.78125 C 36.581 81.230875 39.2315 75.96875 43.15625 72.15625 C 45.47346 72.29404 49.478925 72.572738 51.5625 72.5625 C 57.537625 72.5625 63.5 72.118625 69.4375 71.46875 z M 41.75 89.375 C 50.1078 89.786152 60.087323 90.054723 68.46875 90.09375 C 69.218528 91.321453 69.027289 93.027583 68.6875 93.84375 C 62.562268 98.682097 54.138 97.410771 46.9375 96.53125 C 43.175375 96.2685 42.70025 92.20025 41.75 89.375 z M 67.4375 98.3125 C 67.67475 101.03762 67.9375 103.76275 68.1875 106.5 C 70.087375 108 71.818875 109.71875 73.28125 111.65625 C 68.831 113.35595 63.0185 114.2251 59.28125 110.5625 C 56.94325 107.5752 57.850125 103.45025 57.625 99.9375 C 60.912625 99.51275 64.1875 99 67.4375 98.3125 z M 44.71875 98.84375 C 48.00575 99.28125 51.32525 99.59375 54.625 99.84375 C 54.337375 103.68113 55.63775 108.8374 51.875 111.375 C 47.975125 114.1499 42.88775 113.13135 38.75 111.53125 C 40.350125 109.68115 42.125 107.99367 44.125 106.59375 C 44.337375 104.00638 44.5185 101.41837 44.71875 98.84375 z "
         transform="matrix(8,0,0,-8,114.29266,961.52624)"
         id="path2936" /><path
         style="fill:#6e505a;fill-opacity:1;fill-rule:nonzero;stroke:none"
         d="M 61.15625 6.75 C 60.385734 6.7750746 59.611008 6.9241484 58.875 7.15625 C 60.850125 8.480875 63.0185 9.556125 64.84375 11.09375 C 67.15625 13.418375 65.887125 17.4375 63.6875 19.375 C 61.23725 21.725125 57.618625 21.212375 54.53125 21.5 C 56.15625 18.23725 59.037625 14.2315 56.625 10.59375 C 54.375 7.294 49.5 9.2685 47.625 11.96875 C 45.6875 14.1435 46.6065 17.056125 46.96875 19.59375 C 44.131375 18.418375 41.149875 17.63775 38.0625 17.5625 C 40.20025 19.61225 42.800375 21.287625 45.8125 21.625 C 51.100125 22.225125 56.51275 24.25575 61.8125 22.71875 C 66.57525 21.556125 70.38075 16.480875 69.28125 11.53125 C 67.910156 8.4133828 64.495151 6.6413432 61.15625 6.75 z M 51.65625 11.28125 C 53.639347 11.018892 54.1875 13.243859 54.40625 15.125 C 53.84375 16.912625 52.84375 18.537625 51.96875 20.1875 C 50.556125 17.588 48.46875 14.36225 50.71875 11.5625 C 51.064016 11.415656 51.37295 11.31873 51.65625 11.28125 z "
         transform="matrix(8,0,0,-8,114.29266,961.52624)"
         id="path2938" /><path
         d="m 365.801,515.102 c -22.102,29.597 -21.403,67.796 4,95.5 32.597,-15.602 34.199,-50.204 26.5,-81.204 -7.602,-3.597 -22.801,-10.699 -30.5,-14.296"
         style="fill:#6e505a;fill-opacity:1;fill-rule:nonzero;stroke:none"
         id="path2942" /><path
         d="m 745.199,596 c 10.301,11.5 20.602,11.5 30.903,-0.199 19.097,-21.801 13.699,-57.699 -6.403,-77.301 -38.398,-4.398 -44,54.301 -24.5,77.5"
         style="fill:#6e505a;fill-opacity:1;fill-rule:nonzero;stroke:none"
         id="path2944" /><path
         d="m 507.102,499 c 14.796,-15.801 24.296,-35.5 33.898,-54.699 29.199,11.097 51.398,33.301 74.301,53.5 -2.5,-40.5 -41.199,-78.699 -82.903,-66 -27.398,9.597 -24.5,44.097 -25.296,67.199"
         style="fill:#6e505a;fill-opacity:1;fill-rule:nonzero;stroke:none"
         id="path2946" /><path
         style="fill:#000000"
         d="m 30.681063,54.036305 c -1.421528,-2.936485 -1.103826,-6.981359 0.720325,-9.170959 l 0.658092,-0.789934 0.993836,0.707674 c 1.383443,0.985098 2.405895,3.253249 2.405895,5.337105 0,3.175484 -0.216734,3.627322 -2.208491,4.604171 l -1.807448,0.886456 -0.762209,-1.574513 z"
         id="path3004"
         transform="matrix(8,0,0,-8,114.29266,961.52624)" /><path
         style="fill:#000000"
         d="m 53.085449,66.224548 c -2.244502,-0.419325 -3.341753,-2.059104 -3.634424,-5.431439 -0.178136,-2.052589 -0.145961,-2.225568 0.328771,-1.767524 0.289427,0.279253 1.165654,1.650133 1.947172,3.046399 0.781517,1.396266 1.466728,2.591399 1.522691,2.65585 0.267345,0.307896 4.434669,-2.272614 6.562252,-4.063509 2.443848,-2.057112 2.796163,-2.021522 1.872485,0.189151 -1.435439,3.43549 -5.470094,5.955615 -8.598947,5.371072 z"
         id="path3006"
         transform="matrix(8,0,0,-8,114.29266,961.52624)" /><path
         style="fill:#000000"
         d="m 49.716519,22.098642 c -6.064633,-1.021464 -8.875873,-2.037608 -10.430412,-3.77015 -0.605618,-0.674965 -0.597284,-0.67891 0.904106,-0.427921 1.538494,0.257191 5.127119,1.230842 6.158563,1.670916 0.507723,0.216624 0.559726,-0.0842 0.507733,-2.93709 -0.05501,-3.018589 -0.0091,-3.242637 0.912126,-4.455142 1.121238,-1.475691 2.551282,-2.4334247 4.381,-2.9340555 1.057453,-0.2893309 1.509854,-0.242953 2.516821,0.2580125 3.073517,1.529072 3.423874,4.250371 1.164086,9.041709 -0.782134,1.658327 -1.382609,3.049631 -1.334389,3.091785 0.04822,0.04215 1.491979,-0.04218 3.208354,-0.187408 3.731488,-0.315735 5.739377,-1.170326 6.977278,-2.969645 2.700265,-3.924899 2.115643,-6.415725 -2.165528,-9.2263944 -1.472215,-0.9665362 -2.58181,-1.9109594 -2.465769,-2.0987181 0.345066,-0.5583285 3.806144,-0.027521 5.498169,0.8432253 0.854152,0.4395618 2.067397,1.4736188 2.696101,2.2979042 1.068501,1.4009 1.131516,1.62642 0.965629,3.455854 -0.412062,4.544293 -3.688167,7.964044 -8.635047,9.013664 -2.582626,0.547976 -4.258851,0.445085 -10.858821,-0.666546 l 0,0 z m 3.629943,-4.143792 c 1.233253,-2.505092 1.339922,-4.006063 0.394851,-5.556091 -0.548574,-0.899728 -0.88392,-1.100089 -1.841229,-1.100089 -2.452072,0 -2.95263,2.935572 -1.162713,6.818846 0.583897,1.266782 1.169484,2.236584 1.301303,2.155115 0.131818,-0.08147 0.720324,-1.12447 1.307788,-2.317781 z"
         id="path3008"
         transform="matrix(8,0,0,-8,114.29266,961.52624)" /><path
         style="fill:#000000"
         d="m 80.172356,54.874108 c -1.416999,-0.728224 -2.177831,-2.116991 -2.332692,-4.257923 -0.26068,-3.603864 1.765525,-6.584228 3.741531,-5.503454 2.61495,1.430243 3.096653,6.50932 0.884115,9.322106 -0.765491,0.973163 -1.121413,1.041349 -2.292954,0.439271 l 0,0 z"
         id="path3010"
         transform="matrix(8,0,0,-8,114.29266,961.52624)" /></g></g></svg>